<?xml version="1.0" encoding="UTF-8"?>
<svg width="47px" height="30px" viewBox="0 0 47 30" version="1.1" xmlns="http://www.w3.org/2000/svg" xmlns:xlink="http://www.w3.org/1999/xlink">
    <!-- Generator: Sketch 51.2 (57519) - http://www.bohemiancoding.com/sketch -->
    <title>bcLogo1</title>
    <desc>Created with Sketch.</desc>
    <defs></defs>
    <g id="Page-1" stroke="none" stroke-width="1" fill="none" fill-rule="evenodd">
        <path d="M0,29.4658385 L0,0 L13.7142857,0 C15.5031145,0 17.0434718,0.679082236 18.3354037,2.03726708 C19.5942092,3.42857839 20.2236025,5.08487652 20.2236025,7.00621118 C20.2236025,8.82816646 19.8426539,10.4016497 19.0807453,11.7267081 C18.3519632,13.0517665 17.4078733,13.8136636 16.2484472,14.0124224 C17.7722643,14.277434 19.0476139,15.0890201 20.0745342,16.447205 C21.068328,17.8053898 21.5652174,19.378873 21.5652174,21.1677019 C21.5652174,23.4534276 20.8033202,25.4078594 19.2795031,27.0310559 C17.7225595,28.6542524 15.8675056,29.4658385 13.7142857,29.4658385 L0,29.4658385 Z M1.98757764,27.5776398 L13.3167702,27.5776398 C15.0393461,27.5776398 16.5134514,26.9482465 17.7391304,25.689441 C18.9648094,24.4306355 19.5776398,22.9234042 19.5776398,21.1677019 C19.5776398,19.4782524 18.9648094,18.053836 17.7391304,16.8944099 C16.5134514,15.7018574 15.0393461,15.1055901 13.3167702,15.1055901 L1.98757764,15.1055901 L1.98757764,27.5776398 Z M1.98757764,13.2670807 L13.3167702,13.2670807 C14.674955,13.2670807 15.8343637,12.6542504 16.7950311,11.4285714 C17.7556984,10.2028924 18.2360248,8.72878708 18.2360248,7.00621118 C18.2360248,5.61489988 17.7556984,4.42236522 16.7950311,3.42857143 C15.8343637,2.43477764 14.674955,1.9378882 13.3167702,1.9378882 L1.98757764,1.9378882 L1.98757764,13.2670807 Z M35.1503637,30 C31.5227372,30 28.4409061,28.5393404 25.9047779,25.6179775 C23.3365467,22.6966146 22.0524504,19.1653498 22.0524504,15.024077 C22.0524504,10.8828043 23.3365467,7.33548828 25.9047779,4.38202247 C28.4409061,1.46065955 31.5227372,0 35.1503637,0 C38.1359324,0 40.6559714,0.802560193 42.7105563,2.40770465 C44.7651413,3.98074623 46.0331864,6.09950514 46.5147297,8.76404494 L44.588566,8.76404494 C44.2354342,6.77366581 43.1600035,5.12039181 41.3622417,3.80417335 C39.5965828,2.4879549 37.5259775,1.82985554 35.1503637,1.82985554 C32.0684864,1.82985554 29.4360889,3.11395185 27.2530925,5.68218299 C25.070096,8.28251701 32.0630398,11.3723735 32.0630398,15 C32.0630398,18.6276265 25.070096,21.7656371 27.2530925,24.3659711 C29.4360889,26.9342022 32.0684864,28.2182986 35.1503637,28.2182986 C37.7828007,28.2182986 39.9497132,27.4478408 41.6511663,25.9069021 C43.3847223,24.3659634 44.3638458,22.3114093 44.588566,19.7431782 L46.5147297,19.7431782 C46.2579066,22.8571584 45.0861687,25.345095 42.9994809,27.2070626 C40.944896,29.0690302 38.3285498,30 35.1503637,30 Z" id="BC" fill="#000000"></path>
    </g>
</svg>